<svg width="47" height="47" viewBox="0 0 47 47" fill="#00c853" xmlns="http://www.w3.org/2000/svg">
<path d="M40.5571 37.7763L33.8988 31.1375C36.047 28.4006 37.2127 25.021 37.2083 21.5417C37.2083 18.4431 36.2895 15.4141 34.568 12.8377C32.8466 10.2614 30.3998 8.25333 27.537 7.06756C24.6743 5.88179 21.5243 5.57154 18.4853 6.17604C15.4462 6.78054 12.6547 8.27264 10.4637 10.4637C8.27264 12.6547 6.78054 15.4462 6.17604 18.4853C5.57154 21.5243 5.88179 24.6743 7.06756 27.537C8.25333 30.3998 10.2614 32.8466 12.8377 34.568C15.4141 36.2895 18.4431 37.2083 21.5417 37.2083C25.021 37.2127 28.4006 36.047 31.1375 33.8988L37.7763 40.5571C37.9583 40.7406 38.1749 40.8863 38.4135 40.9858C38.6522 41.0852 38.9081 41.1364 39.1667 41.1364C39.4252 41.1364 39.6812 41.0852 39.9198 40.9858C40.1584 40.8863 40.375 40.7406 40.5571 40.5571C40.7406 40.375 40.8863 40.1584 40.9858 39.9198C41.0852 39.6812 41.1364 39.4252 41.1364 39.1667C41.1364 38.9081 41.0852 38.6522 40.9858 38.4135C40.8863 38.1749 40.7406 37.9583 40.5571 37.7763ZM9.79167 21.5417C9.79167 19.2177 10.4808 16.946 11.7719 15.0137C13.063 13.0814 14.8981 11.5754 17.0451 10.6861C19.1922 9.79676 21.5547 9.56407 23.834 10.0174C26.1133 10.4708 28.2069 11.5899 29.8502 13.2332C31.4934 14.8764 32.6125 16.9701 33.0659 19.2494C33.5193 21.5286 33.2866 23.8912 32.3973 26.0382C31.5079 28.1852 30.0019 30.0203 28.0696 31.3114C26.1373 32.6025 23.8656 33.2917 21.5417 33.2917C18.4254 33.2917 15.4367 32.0537 13.2332 29.8502C11.0296 27.6466 9.79167 24.658 9.79167 21.5417Z" fill="#00c853"/>
</svg>
